<svg xmlns="http://www.w3.org/2000/svg" viewBox="0 0 512 512"><path d="M 96,36.61 41.21,173.6 c 0.26,0.6 0.84,1.4 2.15,2.5 2.16,1.8 6.2,4 11.49,5.8 10.57,3.5 25.9,5.5 41.15,5.5 15.2,0 30.6,-2 41.2,-5.5 5.2,-1.8 9.3,-4 11.4,-5.8 1.3,-1.2 1.9,-1.9 2.2,-2.5 z m 160,0 -54.8,136.99 c 0.3,0.6 0.9,1.3 2.2,2.5 2.1,1.8 6.2,4 11.4,5.8 10.6,3.5 26,5.5 41.2,5.5 15.3,0 30.6,-2 41.2,-5.5 5.2,-1.8 9.3,-4 11.4,-5.8 1.3,-1.2 1.9,-1.9 2.2,-2.5 z m 160,0 -54.8,136.99 c 0.3,0.6 0.9,1.3 2.2,2.5 2.1,1.8 6.2,4 11.4,5.8 10.6,3.5 26,5.5 41.2,5.5 15.2,0 30.6,-2 41.2,-5.5 5.2,-1.8 9.3,-4 11.4,-5.8 1.3,-1.2 1.9,-1.9 2.2,-2.5 z M 41,202 v 192.3 l 17.06,34.1 -16.71,33.4 c 0.3,0.6 0.87,1.3 2.01,2.3 2.16,1.8 6.2,4 11.49,5.8 10.57,3.5 25.9,5.5 41.15,5.5 15.2,0 30.6,-2 41.2,-5.5 5.2,-1.8 9.3,-4 11.4,-5.8 1.2,-1 1.7,-1.7 2.1,-2.3 L 133.9,428.4 151,394.3 V 202 c -2.6,1.2 -5.3,2.3 -8.2,3.2 -13.4,4.5 -30,6.5 -46.8,6.5 -16.75,0 -33.42,-2 -46.85,-6.5 -2.87,-0.9 -5.59,-2 -8.15,-3.2 z m 160,0 v 192.3 l 17.1,34.1 -16.8,33.4 c 0.4,0.6 0.9,1.3 2.1,2.3 2.1,1.8 6.2,4 11.4,5.8 10.6,3.5 26,5.5 41.2,5.5 15.3,0 30.6,-2 41.2,-5.5 5.2,-1.8 9.3,-4 11.4,-5.8 1.2,-1 1.7,-1.7 2.1,-2.3 L 293.9,428.4 311,394.3 V 202 c -2.6,1.2 -5.3,2.3 -8.2,3.2 -13.4,4.5 -30,6.5 -46.8,6.5 -16.8,0 -33.4,-2 -46.8,-6.5 -2.9,-0.9 -5.6,-2 -8.2,-3.2 z m 160,0 v 192.3 l 17.1,34.1 -16.8,33.4 c 0.4,0.6 0.9,1.3 2.1,2.3 2.1,1.8 6.2,4 11.4,5.8 10.6,3.5 26,5.5 41.2,5.5 15.2,0 30.6,-2 41.2,-5.5 5.2,-1.8 9.3,-4 11.4,-5.8 1.2,-1 1.7,-1.7 2.1,-2.3 L 453.9,428.4 471,394.3 V 202 c -2.6,1.2 -5.3,2.3 -8.2,3.2 -13.4,4.5 -30,6.5 -46.8,6.5 -16.8,0 -33.4,-2 -46.8,-6.5 -2.9,-0.9 -5.6,-2 -8.2,-3.2 z" fill="currentColor" /></svg>
