<svg xmlns="http://www.w3.org/2000/svg" viewBox="0 0 512 512"><path d="M 187.625,60.313 171.22,96.937 c -3.22593,-0.387946 -6.47094,-0.596267 -9.72,-0.624 -10.577,-0.066 -20.857,1.808 -30.47,5.28 l -23.25,-32.561 -44.03,32.156 24.063,33.657 c -7.419677,10.69663 -12.37215,22.90704 -14.5,35.75 l -42.72,4.687 5.345,54.25 45.468,-5 c 5.090275,10.21586 12.079436,19.36889 20.594,26.97 l -19.406,43.375 49.375,22.094 19.5,-43.564 c 11.656,1.242 23.08,0.128 33.75,-3 l 28.124,38.53 43.72,-33.186 -17.219,-23.531 -9.25,-12.97 c 7.23959,-9.42812 12.51061,-20.21502 15.5,-31.72 l 44.437,-4.843 -5.342,-54.25 -42.25,4.157 C 238.02981,139.99181 230.31348,128.67397 220.376,119.5 L 237,82.406 Z m -27.344,84.25 c 23.3,-0.24 42.94,17.827 44.376,41.343 1.48,24.275 -17.004,45.144 -41.28,46.625 -24.278,1.483 -45.145,-16.974 -46.626,-41.25 -1.48,-24.274 16.973,-45.142 41.25,-46.624 0.76,-0.046 1.53,-0.086 2.28,-0.094 z m 219.344,61.75 -16.405,36.624 c -3.22593,-0.38795 -6.47094,-0.59627 -9.72,-0.624 -10.577,-0.066 -20.857,1.808 -30.47,5.28 l -23.25,-32.561 -44.03,32.156 24.063,33.657 c -7.41968,10.69663 -12.37215,22.90704 -14.5,35.75 l -42.72,4.687 5.345,54.25 45.468,-5 c 5.09028,10.21586 12.07944,19.36889 20.594,26.97 l -19.406,43.375 49.375,22.094 19.5,-43.564 c 11.656,1.242 23.08,0.128 33.75,-3 l 28.124,38.53 43.72,-33.186 -17.219,-23.531 -9.25,-12.97 c 7.23959,-9.42812 12.51061,-20.21502 15.5,-31.72 l 44.437,-4.843 -5.342,-54.25 -42.25,4.157 C 430.02981,285.99181 422.31348,274.67397 412.376,265.5 L 429,228.406 Z m -27.344,84.25 c 23.3,-0.24 42.94,17.827 44.376,41.343 1.48,24.275 -17.004,45.144 -41.28,46.625 -24.278,1.483 -45.145,-16.974 -46.626,-41.25 -1.48,-24.274 16.973,-45.142 41.25,-46.624 0.76,-0.046 1.53,-0.086 2.28,-0.094 z" fill="currentColor" /></svg>