<svg xmlns="http://www.w3.org/2000/svg" viewBox="0 0 512 512"><path d="M 130.72,91 C 106,91.11 106,92.875 106,121 H 76 l -15,30 v 60 l 15,30 h 30 c 0,30 0,30 30,30 h 120 c 30,0 30,0 30,-30 h 15 l 15,-30 H 496 V 151 H 316 l -15,-30 h -15 c 0,-30 0,-30 -30,-30 H 136 c -1.875,0 -3.633,-0.007 -5.28,0 z M 166,307 c -8.28427,0 -15,6.71573 -15,15 v 55 c 0,23.20463 90,23.20463 90,0 v -55 c 0,-8.28427 -6.71573,-15 -15,-15 z m -15,69 c -30,0 -45,30 -45,30 -15,0 -30,0 -30,15 l -60,15 v 15 h 360 v -15 l -60,-15 c 0,-15 -15,-15 -30,-15 0,0 -15,-30 -45,-30 z" fill="currentColor" /></svg>
